<svg width="24" height="24" viewBox="0 0 24 24" fill="none" xmlns="http://www.w3.org/2000/svg">
<path d="M4 11.9999C4 11.6076 4.2736 11.2833 4.62859 11.232L4.72727 11.2249L17.5118 11.2256L12.8931 6.32413C12.6085 6.02214 12.6075 5.53146 12.8909 5.22816C13.1485 4.95244 13.5525 4.9265 13.8377 5.15096L13.9194 5.2258L19.7861 11.4503C19.8236 11.4901 19.8562 11.5332 19.8838 11.5787C19.8916 11.5924 19.8996 11.6064 19.9071 11.6207C19.9141 11.633 19.9203 11.6457 19.9262 11.6585C19.9345 11.6772 19.9425 11.6966 19.9498 11.7163C19.9557 11.7315 19.9606 11.7463 19.9651 11.7612C19.9705 11.7797 19.9757 11.7994 19.9802 11.8194C19.9835 11.8334 19.9861 11.8468 19.9884 11.8603C19.9917 11.8804 19.9944 11.9012 19.9964 11.9222C19.9981 11.9382 19.9991 11.9541 19.9997 11.97C19.9998 11.9797 20 11.9898 20 11.9999L19.9996 12.0299C19.9991 12.0451 19.9981 12.0603 19.9967 12.0755L20 11.9999C20 12.0488 19.9957 12.0966 19.9876 12.143C19.9857 12.1541 19.9835 12.1655 19.981 12.1768C19.9758 12.2001 19.9699 12.2226 19.963 12.2446C19.9596 12.2556 19.9557 12.2673 19.9515 12.2789C19.943 12.3022 19.9337 12.3244 19.9236 12.3461C19.9189 12.3563 19.9136 12.3669 19.908 12.3775C19.899 12.3947 19.8896 12.411 19.8797 12.427C19.8727 12.4383 19.865 12.45 19.8569 12.4616L19.8506 12.4705C19.831 12.4978 19.8097 12.5236 19.787 12.5479L19.7861 12.5486L13.9194 18.7742C13.6348 19.0762 13.1744 19.0752 12.8909 18.7719C12.6333 18.4962 12.6106 18.0656 12.8225 17.7627L12.8931 17.6759L17.5098 12.7755L4.72727 12.7749C4.32561 12.7749 4 12.4279 4 11.9999Z" fill="#595B62"/>
</svg>
