<svg width="24" height="24" viewBox="0 0 24 24" fill="none" xmlns="http://www.w3.org/2000/svg">
<path d="M11.9999 20C11.6076 20 11.2833 19.7264 11.232 19.3714L11.2249 19.2727L11.2256 6.48824L6.32413 11.1069C6.02214 11.3915 5.53146 11.3925 5.22816 11.1091C4.95244 10.8515 4.9265 10.4475 5.15095 10.1623L5.2258 10.0806L11.4503 4.21393C11.4901 4.17641 11.5332 4.14382 11.5787 4.11616C11.5924 4.10835 11.6064 4.1004 11.6207 4.09286C11.633 4.08593 11.6457 4.07966 11.6585 4.07375C11.6772 4.06554 11.6966 4.05752 11.7163 4.05024C11.7315 4.04432 11.7463 4.03938 11.7612 4.03487C11.7797 4.02951 11.7994 4.0243 11.8194 4.01983C11.8334 4.0165 11.8468 4.01386 11.8603 4.01156C11.8804 4.00833 11.9012 4.00557 11.9222 4.00361C11.9382 4.00191 11.9541 4.00089 11.97 4.00033C11.9797 4.00018 11.9898 4 11.9999 4L12.0299 4.00036C12.0451 4.00092 12.0603 4.0019 12.0755 4.00329L11.9999 4C12.0488 4 12.0966 4.00425 12.143 4.01238C12.1541 4.01427 12.1655 4.01651 12.1768 4.019C12.2001 4.02417 12.2226 4.03014 12.2446 4.03701C12.2556 4.04039 12.2673 4.04432 12.2789 4.04852C12.3022 4.05702 12.3244 4.06625 12.3461 4.07642C12.3563 4.08114 12.3669 4.08642 12.3775 4.09196C12.3947 4.10105 12.411 4.11041 12.427 4.12031C12.4383 4.1273 12.45 4.13503 12.4616 4.14311L12.4705 4.1494C12.4978 4.169 12.5236 4.19025 12.5479 4.21301L12.5486 4.21389L18.7742 10.0806C19.0762 10.3652 19.0752 10.8256 18.7719 11.1091C18.4962 11.3667 18.0656 11.3894 17.7627 11.1775L17.6759 11.1069L12.7755 6.49018L12.7749 19.2727C12.7749 19.6744 12.4279 20 11.9999 20Z" fill="#595B62"/>
</svg>
